<svg xmlns="http://www.w3.org/2000/svg" width="96.338" height="72.19" viewBox="0 0 96.338 72.19">
  <path id="folder" d="M96.338,271.438a5.276,5.276,0,0,1-1.589,3.384l-17.227,20.3a17.385,17.385,0,0,1-6.178,4.435,17.8,17.8,0,0,1-7.357,1.82H8.2a6.954,6.954,0,0,1-3.1-.667,2.279,2.279,0,0,1-1.359-2.2,5.276,5.276,0,0,1,1.589-3.384l17.227-20.3a17.384,17.384,0,0,1,6.178-4.435,17.8,17.8,0,0,1,7.357-1.82H91.878a6.954,6.954,0,0,1,3.1.667A2.279,2.279,0,0,1,96.338,271.438ZM78.752,253.8V262H36.095a24.116,24.116,0,0,0-10.1,2.435,23.934,23.934,0,0,0-8.408,6.127L.308,290.87l-.256.308q0-.205-.026-.641T0,289.9v-49.22a11.053,11.053,0,0,1,3.384-8.1,11.052,11.052,0,0,1,8.1-3.384H27.891a11.053,11.053,0,0,1,8.1,3.384,11.052,11.052,0,0,1,3.384,8.1v1.641H67.268A11.554,11.554,0,0,1,78.752,253.8Z" transform="translate(0 -229.191)" fill="#6d2ef1"/>
</svg>
