<svg xmlns="http://www.w3.org/2000/svg" width="85" height="85" viewBox="0 0 85 85">
  <g id="Group_3596" data-name="Group 3596" transform="translate(-1595.296 -383.296)">
    <circle id="Ellipse_754" data-name="Ellipse 754" cx="42.5" cy="42.5" r="42.5" transform="translate(1595.296 383.296)" fill="#f8e7f7"/>
    <path id="like-button" d="M27.985,4.419A.653.653,0,0,1,27.524,3.3L28.729,2.1a.653.653,0,1,1,.923.923L28.447,4.227a.651.651,0,0,1-.462.191ZM31.1,6.529a.674.674,0,0,1-.118-.011L29.51,6.25a.653.653,0,0,1,.234-1.285l1.473.268a.653.653,0,0,1-.116,1.3ZM26.143,2.778a.653.653,0,0,1-.642-.536L25.233.768A.653.653,0,1,1,26.518.535l.268,1.473a.653.653,0,0,1-.526.759A.644.644,0,0,1,26.143,2.778ZM7.305,37.563a.653.653,0,1,1,.923.923L7.023,39.692a.664.664,0,0,1-.923,0,.653.653,0,0,1,0-.923ZM4.77,35.272l1.473.268a.653.653,0,0,1-.116,1.3.672.672,0,0,1-.117-.011l-1.473-.268a.653.653,0,1,1,.233-1.285Zm4.723,3.751a.652.652,0,0,1,.759.526l.268,1.473a.653.653,0,0,1-.526.759.671.671,0,0,1-.117.011.653.653,0,0,1-.642-.536l-.268-1.473a.653.653,0,0,1,.526-.759Zm23.3-1.746c-.1.01-1.9-.042-1.926-.039a3.8,3.8,0,0,0-.63.4,5.2,5.2,0,0,1-1.508.823,1.45,1.45,0,0,1-.375.056l-15.277,0A3.589,3.589,0,0,1,9.56,34.87a3.794,3.794,0,0,1,.333-1.557,3.689,3.689,0,0,1-1.7-3.128,3.755,3.755,0,0,1,.418-1.734A3.691,3.691,0,0,1,7.167,25.5a3.743,3.743,0,0,1,.454-1.8,3.694,3.694,0,0,1-1.335-2.86A3.036,3.036,0,0,1,9.551,17.63h9.7a33.831,33.831,0,0,1-.97-6.05c.176-1.783.584-5.952,3.213-7.245a3.494,3.494,0,0,1,2.811-.2,3.921,3.921,0,0,1,1.208.748c1.407,1.26,1.332,2.971,1.267,4.343-.01.281-.023.542-.023.79v1.45c.15,1,4.274,8.218,4.424,8.492.31.183.911.5,1.551.836V20.7a2.452,2.452,0,0,1,2.481-2.413H40.7A2.452,2.452,0,0,1,43.18,20.7V36.763A2.452,2.452,0,0,1,40.7,39.179H35.214A2.467,2.467,0,0,1,32.791,37.276Zm-.059-15.019a24.185,24.185,0,0,1-2.57-1.42c-.281-.673-4.711-7.914-4.711-9.341V10.013c0-1.463.359-3.115-.8-4.156a2.279,2.279,0,0,0-1.4-.63,2.455,2.455,0,0,0-1.175.278c-1.881.927-2.3,4.277-2.488,6.2a37.623,37.623,0,0,0,1.394,7.232H9.551a1.732,1.732,0,0,0-1.959,1.907,2.367,2.367,0,0,0,1.077,2.011h4.473a.653.653,0,0,1,0,1.306H8.875a2.424,2.424,0,0,0-.4,1.342,2.381,2.381,0,0,0,.95,1.923h3.719a.653.653,0,1,1,0,1.306H9.978A2.428,2.428,0,0,0,9.5,30.184a2.351,2.351,0,0,0,1.309,2.142c.016,0,.029,0,.046,0h2.286a.653.653,0,0,1,0,1.306H11.2a2.432,2.432,0,0,0-.336,1.241,2.277,2.277,0,0,0,2.207,2.344l15.277,0c.767-.232,1.335-.914,2.07-1.2a1.761,1.761,0,0,1,.63-.085c.444,0,1.6.059,1.681.052Zm5.224,13.658A1.959,1.959,0,1,0,36,33.955a1.959,1.959,0,0,0,1.959,1.959Z" transform="translate(1614.061 404.732)" fill="#645d74"/>
    <ellipse id="Ellipse_755" data-name="Ellipse 755" cx="1.5" cy="1" rx="1.5" ry="1" transform="translate(1612.296 408.296)" fill="#cfb0f5"/>
    <circle id="Ellipse_756" data-name="Ellipse 756" cx="1" cy="1" r="1" transform="translate(1651.296 457.296)" fill="#cfb0f5"/>
  </g>
</svg>
