<svg xmlns="http://www.w3.org/2000/svg" width="14.114" height="17.293" viewBox="0 0 14.114 17.293">
  <g id="Alerts" transform="translate(-342.433 -789.197)">
    <path id="Path_20" data-name="Path 20" d="M370.628,839.425a4.713,4.713,0,0,0-4.71,4.71V846.4a3.753,3.753,0,0,1-.447,1.617l-.9,1.5a1.506,1.506,0,0,0,.848,2.3,16.426,16.426,0,0,0,10.418,0,1.571,1.571,0,0,0,.848-2.3l-.9-1.5a3.851,3.851,0,0,1-.439-1.617v-2.268A4.724,4.724,0,0,0,370.628,839.425Z" transform="translate(-21.12 -48.717)" fill="none" stroke="#828282" stroke-linecap="round" stroke-miterlimit="10" stroke-width="1.5"/>
    <path id="Path_21" data-name="Path 21" d="M372.379,839.606a4.721,4.721,0,0,0-.754-.157,5.291,5.291,0,0,0-2.151.157,1.561,1.561,0,0,1,2.9,0Z" transform="translate(-21.419 -48.67)" fill="none" stroke="#828282" stroke-linecap="round" stroke-linejoin="round" stroke-miterlimit="10" stroke-width="1.5"/>
    <path id="Path_22" data-name="Path 22" d="M373.227,852.883a2.355,2.355,0,0,1-4.71,0" transform="translate(-21.363 -49.498)" fill="none" stroke="#828282" stroke-miterlimit="10" stroke-width="1.5"/>
  </g>
</svg>
