<svg xmlns="http://www.w3.org/2000/svg" width="18.158" height="18.915" viewBox="0 0 18.158 18.915">
  <g id="certificate" transform="translate(-1.96 -1)">
    <circle id="Ellipse_707" data-name="Ellipse 707" cx="0.924" cy="0.924" r="0.924" transform="translate(10.118 12.122)" fill="#6d2ef1"/>
    <path id="Path_4784" data-name="Path 4784" d="M22.933,23.457c-.393-.672-1.339-.625-1.789-.885-.426-.249-.859-1.1-1.665-1.1s-1.238.858-1.661,1.1c-.455.263-1.395.21-1.789.885-.377.651.125,1.458.125,1.99s-.5,1.338-.125,1.99c.393.672,1.338.624,1.789.885.425.248.861,1.1,1.661,1.1s1.222-.846,1.665-1.1,1.394-.208,1.789-.885c.377-.652-.125-1.447-.125-1.99S23.31,24.108,22.933,23.457Zm-3.452,3.67a1.68,1.68,0,1,1,1.682-1.68A1.683,1.683,0,0,1,19.481,27.127Z" transform="translate(-8.44 -12.402)" fill="#6d2ef1"/>
    <path id="Path_4785" data-name="Path 4785" d="M19.018,1H3.065a1.1,1.1,0,0,0-1.1,1.1V14.108a1.106,1.106,0,0,0,1.1,1.1H6.836c-.382-.9.121-1.843.121-2.168,0-.361-.579-1.41-.023-2.368C7.5,9.7,8.671,9.69,9,9.515a4.128,4.128,0,0,1,1.546-1.135H4.635a.378.378,0,1,1,0-.757H17.083a.378.378,0,1,1,0,.757H11.537c.85.235,1.328,1.009,1.549,1.135.264.159,1.484.178,2.062,1.158.547.947-.023,2.038-.023,2.372s.5,1.266.121,2.168h3.772a1.1,1.1,0,0,0,1.1-1.1V2.1A1.1,1.1,0,0,0,19.018,1ZM6.931,3.725h7.855a.378.378,0,0,1,0,.757H6.931a.378.378,0,1,1,0-.757ZM17.083,6.431H4.635a.378.378,0,0,1,0-.757H17.083a.378.378,0,1,1,0,.757ZM13.513,19.665a.561.561,0,0,1-.753.17,3.114,3.114,0,0,0-3.435-.011.575.575,0,0,1-.757-.166.728.728,0,0,1-.1-.654l.681-2.289c.042.038.079.079.113.114a2.448,2.448,0,0,0,1.774.953,2.448,2.448,0,0,0,1.767-.942c.034-.038.076-.079.121-.125l.688,2.3A.719.719,0,0,1,13.513,19.665Z" transform="translate(0)" fill="#6d2ef1"/>
  </g>
</svg>
