<svg xmlns="http://www.w3.org/2000/svg" width="40" height="40" viewBox="0 0 40 40">
  <g id="Group_3709" data-name="Group 3709" transform="translate(-35 -284)">
    <circle id="Ellipse_781" data-name="Ellipse 781" cx="20" cy="20" r="20" transform="translate(35 284)" fill="#eae1ff"/>
    <g id="_2216349_building_building_location_commercial_company_map_icon" data-name="2216349_building_building location_commercial_company_map_icon" transform="translate(26.1 276.9)">
      <path id="Path_5043" data-name="Path 5043" d="M30.161,19.1H19.9V35.743H30.161ZM24.53,32.583H23.466v-1.94H24.53Zm0-3.91H23.466v-1.94H24.53Zm0-3.879H23.466v-1.94H24.53Zm3.222,7.79H26.689v-1.94h1.064Zm0-3.91H26.689v-1.94h1.064Zm0-3.879H26.689v-1.94h1.064Z" fill="#6d2ef1"/>
      <path id="Path_5044" data-name="Path 5044" d="M61.663,48.627V40.9H55.5v9.823h4.067A2.1,2.1,0,0,0,61.663,48.627Zm-2.378-1.032H57.221V46.562h2.065Zm0-2.6H57.221V43.935h2.065Z" transform="translate(-24.463 -14.98)" fill="#6d2ef1"/>
    </g>
  </g>
</svg>
