<svg xmlns="http://www.w3.org/2000/svg" width="14.13" height="16.484" viewBox="0 0 14.13 16.484">
  <path id="Contracts" d="M208.275,846.634v6.334a1.766,1.766,0,0,1-1.766,1.766h-8.243a1.766,1.766,0,0,1-1.766-1.766V840.016a1.766,1.766,0,0,1,1.766-1.766h8.243a1.766,1.766,0,0,1,1.766,1.766v1.817a1.18,1.18,0,0,1,1.178.294l.833.833a1.178,1.178,0,0,1,0,1.665Zm-3.744-1.251,2.566-2.567v-2.8a.589.589,0,0,0-.589-.589h-8.243a.588.588,0,0,0-.589.589v12.952a.588.588,0,0,0,.589.589h8.243a.589.589,0,0,0,.589-.589v-5.156l-3.8,3.8a5.3,5.3,0,0,1-2.746,1.456l-.642.122a.589.589,0,0,1-.69-.69s.055-.284.122-.641a5.3,5.3,0,0,1,1.456-2.746l2.626-2.626h-3.978a.589.589,0,1,1,0-1.177h4.811A.586.586,0,0,1,204.532,845.383Zm-3.066,4.741a4.109,4.109,0,0,0-.921,1.743,4.1,4.1,0,0,0,1.744-.92Zm.827-.837.833.833,6.328-6.327-.833-.833Zm-2.849-5.15h5.888a.589.589,0,1,0,0-1.177h-5.888a.589.589,0,1,0,0,1.177Zm1.178-2.355h3.533a.589.589,0,1,0,0-1.177h-3.533a.589.589,0,1,0,0,1.177Z" transform="translate(-196.5 -838.25)" fill="#828282" fill-rule="evenodd"/>
</svg>
