<svg xmlns="http://www.w3.org/2000/svg" width="17.975" height="16.329" viewBox="0 0 17.975 16.329">
  <g id="Group_3483" data-name="Group 3483" transform="translate(-123 -357)">
    <g id="Group_2383" data-name="Group 2383" transform="translate(123 357)">
      <g id="Group_2382" data-name="Group 2382" transform="translate(0 0)">
        <path id="Path_4463" data-name="Path 4463" d="M16.294,31.33v-7.34a2.443,2.443,0,0,0-2.444-2.444H2.443A2.444,2.444,0,0,0,0,23.989v4.079H1.629V23.989a.824.824,0,0,1,.853-.813.816.816,0,0,1,.814.815v10.6h13V32.96H6.517v1.628H4.888V32.96h.037V23.991a2.437,2.437,0,0,0-.139-.815H13.85a.814.814,0,0,1,.815.815v7.34Z" transform="translate(0 -21.547)" fill="#6d2ef1"/>
      </g>
    </g>
    <g id="Group_2385" data-name="Group 2385" transform="translate(129.517 360.266)">
      <g id="Group_2384" data-name="Group 2384" transform="translate(0 0)">
        <rect id="Rectangle_601" data-name="Rectangle 601" width="6.517" height="1.629" fill="#6d2ef1"/>
      </g>
    </g>
    <g id="Group_2387" data-name="Group 2387" transform="translate(129.517 363.525)">
      <g id="Group_2386" data-name="Group 2386">
        <rect id="Rectangle_602" data-name="Rectangle 602" width="3.259" height="1.629" fill="#6d2ef1"/>
      </g>
    </g>
    <g id="Group_2389" data-name="Group 2389" transform="translate(134.405 363.525)">
      <g id="Group_2388" data-name="Group 2388">
        <rect id="Rectangle_603" data-name="Rectangle 603" width="1.629" height="1.629" fill="#6d2ef1"/>
      </g>
    </g>
    <g id="Group_2391" data-name="Group 2391" transform="translate(126.274 368.404)">
      <g id="Group_2390" data-name="Group 2390">
        <path id="Path_4464" data-name="Path 4464" d="M88.982,320.22v2.458a.8.8,0,0,1-.8.8.828.828,0,0,1-.812-.826V320.2H85.74v2.45a2.457,2.457,0,0,0,2.153,2.437v.03h10.1a2.444,2.444,0,0,0,2.446-2.442v-2.483Zm9.829,2.457a.814.814,0,0,1-.817.813H90.473a2.431,2.431,0,0,0,.138-.811v-.832l8.2-.019v.85Z" transform="translate(-85.74 -320.194)" fill="#6d2ef1"/>
      </g>
    </g>
  </g>
</svg>
