<svg xmlns="http://www.w3.org/2000/svg" width="17.4" height="18" viewBox="0 0 17.4 18">
  <g id="idea" transform="translate(-3 -2)">
    <path id="Path_5029" data-name="Path 5029" d="M11.7,2h0a.3.3,0,0,1,.3.3V3.8a.3.3,0,0,1-.3.3h0a.3.3,0,0,1-.3-.3V2.3a.3.3,0,0,1,.3-.3ZM6.607,6.034a.3.3,0,1,0,.424-.424L5.971,4.55a.3.3,0,1,0-.424.424ZM4.8,10.4H3.3a.3.3,0,1,0,0,.6H4.8a.3.3,0,1,0,0-.6Zm11.993,4.964a.3.3,0,1,0-.424.424l1.061,1.06a.3.3,0,1,0,.424-.424Zm-10.185,0-1.061,1.06a.3.3,0,1,0,.424.424l1.061-1.06a.3.3,0,1,0-.424-.424ZM20.1,10.4H18.6a.3.3,0,0,0,0,.6h1.5a.3.3,0,0,0,0-.6ZM16.578,6.119a.3.3,0,0,0,.212-.088L17.85,4.97a.3.3,0,0,0-.425-.424l-1.06,1.061a.3.3,0,0,0,.212.512ZM11.1,20h1.2a2.1,2.1,0,0,0,2.076-1.8H9.024A2.1,2.1,0,0,0,11.1,20Z" fill="#6d2ef1"/>
    <rect id="Rectangle_1280" data-name="Rectangle 1280" width="6" height="1" transform="translate(8.7 17)" fill="#6d2ef1"/>
    <path id="Path_5030" data-name="Path 5030" d="M28.524,33.182a2.506,2.506,0,0,0,.459-1.9A3.885,3.885,0,0,0,27.147,33.5,1.592,1.592,0,0,0,28.524,33.182Zm-4.008-1.9a2.489,2.489,0,0,0,.456,1.9,1.594,1.594,0,0,0,1.377.321A3.867,3.867,0,0,0,24.516,31.28Z" transform="translate(-15.048 -20.496)" fill="#6d2ef1"/>
    <path id="Path_5031" data-name="Path 5031" d="M24.308,14.649a5.157,5.157,0,0,0-4.194-2.64h0a6.22,6.22,0,0,0-.669,0,5.157,5.157,0,0,0-4.194,2.64,5.4,5.4,0,0,0-.087,5.187L16.88,23.1h2.6V20.6a3.387,3.387,0,0,1-.48.036,1.931,1.931,0,0,1-1.416-.522A3.424,3.424,0,0,1,17,17.34a.3.3,0,0,1,.354-.234,3.783,3.783,0,0,1,2.424,2.3,3.783,3.783,0,0,1,2.424-2.3.3.3,0,0,1,.354.234,3.424,3.424,0,0,1-.582,2.772,1.931,1.931,0,0,1-1.416.522,3.388,3.388,0,0,1-.48-.036v2.5h2.6L24.4,19.836a5.4,5.4,0,0,0-.087-5.187Z" transform="translate(-8.078 -7)" fill="#6d2ef1"/>
  </g>
</svg>
