<svg xmlns="http://www.w3.org/2000/svg" width="16.344" height="13.947" viewBox="0 0 16.344 13.947">
  <g id="leaves" transform="translate(-1 -2)">
    <path id="Path_5032" data-name="Path 5032" d="M2.363,2A1.363,1.363,0,0,0,1,3.363V6.869a4.869,4.869,0,0,0,4.869,4.869l.168,0a6.456,6.456,0,0,1-.1-3.976L4.673,6.5A.584.584,0,1,1,5.5,5.673l.914.914a6.446,6.446,0,0,1,3.142-2.9A4.858,4.858,0,0,0,5.869,2Z" fill="#6d2ef1"/>
    <path id="Path_5033" data-name="Path 5033" d="M7.307,12.533,5.226,14.616a.584.584,0,0,0,.826.825l2.081-2.083a5.254,5.254,0,0,0,8.532-4.1V5.433A1.433,1.433,0,0,0,15.232,4H11.411a5.254,5.254,0,0,0-4.1,8.533Zm4.52-2.872L8.964,12.525a4.109,4.109,0,0,1-.825-.826L11,8.835a.584.584,0,0,1,.825.825Z" transform="translate(0.679 0.335)" fill="#6d2ef1"/>
  </g>
</svg>
