<svg xmlns="http://www.w3.org/2000/svg" width="17.2" height="17.246" viewBox="0 0 17.2 17.246">
  <g id="message" transform="translate(-263.646 -789.244)">
    <path id="Path_23" data-name="Path 23" d="M285.769,852.011h-.392c-3.141,0-4.71-.785-4.71-4.71v-3.924q0-4.711,4.71-4.71h6.28q4.711,0,4.71,4.71V847.3q0,4.711-4.71,4.71h-.392a.794.794,0,0,0-.628.315l-1.178,1.569a1.115,1.115,0,0,1-1.884,0l-1.178-1.569A.886.886,0,0,0,285.769,852.011Z" transform="translate(-16.271 -48.673)" fill="none" stroke="#828282" stroke-linecap="round" stroke-linejoin="round" stroke-miterlimit="10" stroke-width="1.5"/>
    <path id="Path_24" data-name="Path 24" d="M292.33,846.167h.008" transform="translate(-16.947 -49.108)" fill="none" stroke="#828282" stroke-linecap="round" stroke-linejoin="round" stroke-width="2"/>
    <path id="Path_25" data-name="Path 25" d="M289,846.167H289" transform="translate(-16.753 -49.108)" fill="none" stroke="#828282" stroke-linecap="round" stroke-linejoin="round" stroke-width="2"/>
    <path id="Path_26" data-name="Path 26" d="M285.662,846.167h.008" transform="translate(-16.56 -49.108)" fill="none" stroke="#828282" stroke-linecap="round" stroke-linejoin="round" stroke-width="2"/>
  </g>
</svg>
