<svg xmlns="http://www.w3.org/2000/svg" width="15.491" height="18.411" viewBox="0 0 15.491 18.411">
  <path id="money" d="M16.952,1026.488a.53.53,0,0,1,.289.09.736.736,0,0,1,.313.615v.007a.329.329,0,0,0,.167.29h0a.3.3,0,0,0,.059.026h0a.328.328,0,0,0,.062.015h.067a.06.06,0,0,0,.033-.007.251.251,0,0,0,.032-.008l.01-.007c.007,0,.013-.006.02-.006h0a.285.285,0,0,1,.03-.013.324.324,0,0,0,.055-.037h0l.022-.02h0a.332.332,0,0,0,.1-.237v-.007a.8.8,0,0,1,.022-.187.7.7,0,0,1,.291-.427.513.513,0,0,1,.578,0,.737.737,0,0,1,.314.615v.007a.329.329,0,0,0,.167.29h0a.344.344,0,0,0,.059.027h0a.383.383,0,0,0,.062.015h.034a.225.225,0,0,0,.066-.007.251.251,0,0,0,.032-.008l.011-.006c.007,0,.013-.007.019-.007h0a.321.321,0,0,0,.083-.049h0l.022-.02h0a.329.329,0,0,0,.1-.237v-.007a.738.738,0,0,1,.313-.615.513.513,0,0,1,.578,0,.741.741,0,0,1,.315.61c0,.007,0,.007,0,.01a.329.329,0,0,0,.291.331h.034a.333.333,0,0,0,.119-.022h.016a.106.106,0,0,1,.024-.01l.028-.016a.329.329,0,0,0,.148-.279v-.01a.735.735,0,0,1,.314-.609.513.513,0,0,1,.578,0,.734.734,0,0,1,.312.6,3.177,3.177,0,0,1-.9,2.181H17.253a3.179,3.179,0,0,1-.9-2.181.733.733,0,0,1,.313-.6.535.535,0,0,1,.289-.09Zm.675,3.531H21.9v.585H17.627Zm-.151,1.242h4.541c4.354,3.64,5.476,6.935,5.476,9.39v.285a3.389,3.389,0,0,1-2.02,2.75,10.537,10.537,0,0,1-5.128,1.209h-1.2a10.54,10.54,0,0,1-5.128-1.209,3.388,3.388,0,0,1-2.019-2.75v-.285c0-2.455,1.121-5.75,5.474-9.389Zm2.448,3.12a4.271,4.271,0,1,0,4.283,4.27.328.328,0,0,0-.026-.129h0a4.269,4.269,0,0,0-4.256-4.14Zm0,.657a3.6,3.6,0,1,1-2.553,1.057A3.618,3.618,0,0,1,19.924,1035.038Zm-1.6,1.332v.007H18.3v.657h.675a.962.962,0,0,1,1.034.651h-1.7v.657h1.7a.963.963,0,0,1-1.034.651H18.3v.448l-.02.02.02.018v.171h.174l2.025,1.979.46-.47-1.587-1.55a1.647,1.647,0,0,0,1.31-1.268h.9v-.657h-.9a1.631,1.631,0,0,0-.314-.657h1.212v-.657Z" transform="translate(-12.001 -1026.483)" fill="#6d2ef1"/>
</svg>
