<svg xmlns="http://www.w3.org/2000/svg" width="16.015" height="16.016" viewBox="0 0 16.015 16.016">
  <g id="Proposals" transform="translate(-99.855 -789.366)">
    <path id="Path_34" data-name="Path 34" d="M119.871,838.229a.769.769,0,0,0-1.095,0l-5.885,5.884a.763.763,0,0,0-.2.326l-.961,3.207a.773.773,0,0,0,.2.771.76.76,0,0,0,.547.227.821.821,0,0,0,.222-.031l3.209-.961a.785.785,0,0,0,.325-.2l5.885-5.884a.774.774,0,0,0,0-1.1Z" transform="translate(-6.475 -48.634)" fill="#828282"/>
    <path id="Path_35" data-name="Path 35" d="M121.241,845.233a.775.775,0,0,0-.775.775v5.166a1.293,1.293,0,0,1-1.292,1.291H108.841a1.293,1.293,0,0,1-1.292-1.291V840.843a1.292,1.292,0,0,1,1.292-1.292h5.167a.775.775,0,0,0,0-1.55h-5.167A2.845,2.845,0,0,0,106,840.843v10.331a2.845,2.845,0,0,0,2.841,2.842h10.333a2.845,2.845,0,0,0,2.841-2.842v-5.166A.775.775,0,0,0,121.241,845.233Z" transform="translate(-6.145 -48.634)" fill="#828282"/>
  </g>
</svg>
