<svg xmlns="http://www.w3.org/2000/svg" width="22.681" height="11.302" viewBox="0 0 22.681 11.302">
  <path id="rating" d="M15.409,16.684a.761.761,0,0,1-1.11.8l-1.971-1.11L10.357,17.47a.755.755,0,0,1-1.11-.755l.385-2.356L8.008,12.652a.748.748,0,0,1,.43-1.261l2.213-.34.989-2.114a.755.755,0,0,1,1.374,0L14,11.051l2.213.34a.744.744,0,0,1,.468,1.261l-1.624,1.661Zm-7.5-2.092-1.692-.257-.755-1.624a.755.755,0,0,0-1.374,0l-.755,1.624-1.692.257a.755.755,0,0,0-.43,1.269l1.246,1.276L2.163,18.95a.755.755,0,0,0,1.11.755l1.51-.831,1.51.831a.76.76,0,0,0,1.118-.785l-.295-1.812,1.246-1.276a.755.755,0,0,0-.43-1.269Zm15.707.506a.755.755,0,0,0-.6-.506l-1.692-.257-.755-1.624a.755.755,0,0,0-1.374,0l-.755,1.624-1.692.257a.755.755,0,0,0-.43,1.269l1.246,1.276-.295,1.812a.755.755,0,0,0,1.11.755l1.51-.831,1.51.831a.76.76,0,0,0,1.118-.785l-.295-1.812,1.246-1.276a.755.755,0,0,0,.189-.732Z" transform="translate(-1.002 -8.495)" fill="#6d2ef1"/>
</svg>
