<svg xmlns="http://www.w3.org/2000/svg" width="17.48" height="17.237" viewBox="0 0 17.48 17.237">
  <g id="search_1_" data-name="search (1)" transform="translate(-1 -1.254)">
    <rect id="Rectangle_1281" data-name="Rectangle 1281" width="6.61" height="2.833" rx="1" transform="translate(4.071 1.254)" fill="#6d2ef1"/>
    <path id="Path_5034" data-name="Path 5034" d="M24.568,22.741l-2.225-2.225a3.5,3.5,0,1,0-.827.827l2.225,2.225a.585.585,0,1,0,.827-.827Z" transform="translate(-6.261 -5.829)" fill="#6d2ef1"/>
    <path id="Path_5035" data-name="Path 5035" d="M9.2,15.816H3.913a.583.583,0,0,1,0-1.165H8.725a4.556,4.556,0,0,1,0-2.33H3.913a.583.583,0,0,1,0-1.165H9.2a4.66,4.66,0,0,1,4.031-2.33,4.812,4.812,0,0,1,.583.041V4.748A1.748,1.748,0,0,0,12.068,3V4.748A1.748,1.748,0,0,1,10.321,6.5H4.5A1.748,1.748,0,0,1,2.748,4.748V3A1.748,1.748,0,0,0,1,4.748V17.564a1.748,1.748,0,0,0,1.748,1.748h9.321a1.748,1.748,0,0,0,1.649-1.165h-.484A4.66,4.66,0,0,1,9.2,15.816ZM3.913,7.66H10.9a.583.583,0,0,1,0,1.165H3.913a.583.583,0,0,1,0-1.165Z" transform="translate(0 -0.821)" fill="#6d2ef1"/>
  </g>
</svg>
