<svg xmlns="http://www.w3.org/2000/svg" width="13.904" height="13.208" viewBox="0 0 13.904 13.208">
  <path id="star" d="M11.066,8.216a.762.762,0,0,0-.222.674l.618,3.42a.752.752,0,0,1-.313.751.764.764,0,0,1-.813.056L7.257,11.511a.79.79,0,0,0-.348-.091H6.721a.564.564,0,0,0-.188.063L3.455,13.1a.81.81,0,0,1-.494.076.772.772,0,0,1-.619-.883l.619-3.42a.779.779,0,0,0-.222-.68L.229,5.756A.751.751,0,0,1,.042,4.97.78.78,0,0,1,.66,4.449l3.455-.5a.772.772,0,0,0,.612-.423L6.249.4a.707.707,0,0,1,.14-.188L6.45.167a.458.458,0,0,1,.112-.09L6.638.049,6.756,0h.293a.78.78,0,0,1,.612.416L9.2,3.524a.773.773,0,0,0,.577.423l3.455.5a.788.788,0,0,1,.633.521.755.755,0,0,1-.2.785Z" transform="translate(0 0)" fill="#6d2ef1"/>
</svg>
