<svg xmlns="http://www.w3.org/2000/svg" width="18.242" height="20.009" viewBox="0 0 18.242 20.009">
  <g id="venture-capital" transform="translate(-3.7 -0.991)">
    <path id="Path_5036" data-name="Path 5036" d="M17.64,9.162a1.157,1.157,0,0,1-1.162,1.162H12.541a1.162,1.162,0,0,1,0-2.323h3.937A1.178,1.178,0,0,1,17.64,9.162ZM6.12,19.036H4.6a.9.9,0,0,0-.9.9v4.9a.9.9,0,0,0,.9.9H6.12a.9.9,0,0,0,.9-.9v-4.9A.9.9,0,0,0,6.12,19.036Zm-.452,5a.323.323,0,1,1-.645,0v-.774a.323.323,0,1,1,.645,0Zm0-2.549a.323.323,0,1,1-.645,0v-.774a.323.323,0,1,1,.645,0Zm8.809-7.841a1.9,1.9,0,1,0,1.9,1.9A1.867,1.867,0,0,0,14.477,13.647Zm.613,2.807a.729.729,0,0,1-.419.194v.29h-.226v-.29a.964.964,0,0,1-.452-.194A.7.7,0,0,1,13.832,16h.355a.394.394,0,0,0,.1.29.393.393,0,0,0,.516,0,.279.279,0,0,0,.1-.194.273.273,0,0,0-.065-.194.893.893,0,0,0-.258-.161,1.265,1.265,0,0,1-.29-.129.553.553,0,0,1-.323-.516.534.534,0,0,1,.161-.387.736.736,0,0,1,.387-.194V14.2h.226v.323a.6.6,0,0,1,.387.226.683.683,0,0,1,.129.452H14.9a.394.394,0,0,0-.1-.29.293.293,0,0,0-.226-.1.466.466,0,0,0-.226.065.371.371,0,0,0,0,.419.486.486,0,0,0,.258.129,1.265,1.265,0,0,1,.29.129.7.7,0,0,1,.161.129c.065.065.1.1.1.161a.478.478,0,0,1,.032.226.4.4,0,0,1-.1.387Z" transform="translate(0 -4.747)" fill="#6d2ef1"/>
    <path id="Path_5037" data-name="Path 5037" d="M27.219,6.124a2.689,2.689,0,0,1-5.163,0A6.251,6.251,0,0,0,18.7,11.707a4.891,4.891,0,0,0,.807,3.065h.226a4.4,4.4,0,0,1,2.033.419,1.756,1.756,0,0,0,.871.226h.194l4.614-.613h.065a.983.983,0,0,1,1,.839v.129c1.42-.549,2.1-1.839,2.1-4.033a6.293,6.293,0,0,0-3.388-5.615Zm-2.581,7.228A2.549,2.549,0,1,1,27.186,10.8,2.555,2.555,0,0,1,24.637,13.353ZM26.7,1.317V2.64H22.6V1.317a.339.339,0,0,1,.161-.29.3.3,0,0,1,.323.032L24.67,2.188l1.549-1.129a.382.382,0,0,1,.323-.032A.339.339,0,0,1,26.7,1.317Z" transform="translate(-10.16)" fill="#6d2ef1"/>
    <path id="Path_5038" data-name="Path 5038" d="M28.405,17.2a2.064,2.064,0,0,1-3.743,0Zm-3.9,9.164a2.039,2.039,0,0,1-.807-.226,4.6,4.6,0,0,0-2.194-.419,4.6,4.6,0,0,1,2.194.419A1.456,1.456,0,0,0,24.5,26.364Zm5.873.194v.258a.353.353,0,0,0,0-.258.954.954,0,0,0-1.033-.839A1,1,0,0,1,30.374,26.558Z" transform="translate(-12.056 -10.979)" fill="#6d2ef1"/>
    <path id="Path_5039" data-name="Path 5039" d="M29.969,46.213,23,49.827a2.7,2.7,0,0,1-2,.194l-5.1-.581V45.858a5.821,5.821,0,0,1,3.711.1,2.527,2.527,0,0,0,1.42.258l4.55-.613c.226,0,.387.129.387.29.032.194-.129.452-.516.549l-4.227,1.388a.3.3,0,0,0-.194.387.31.31,0,0,0,.29.226h.1l4.227-1.42c.065-.032.129-.032.194-.065l3.42-1.1c.613-.226.9-.1.936-.032.032.1,0,.258-.226.387Z" transform="translate(-8.263 -30.215)" fill="#6d2ef1"/>
    <path id="Path_5040" data-name="Path 5040" d="M31.058,44.313,35.64,43.7h0l-4.582.613h0Z" transform="translate(-18.355 -28.928)" fill="#6d2ef1"/>
  </g>
</svg>
